<?xml version="1.0" encoding="UTF-8"?>
<svg id="Layer_2" xmlns="http://www.w3.org/2000/svg" version="1.1" viewBox="0 0 1728 1296">
  <!-- Generator: Adobe Illustrator 29.1.0, SVG Export Plug-In . SVG Version: 2.1.0 Build 142)  -->
  <defs>
    <style>
      .st0 {
        fill: none;
        stroke: #000000;
        stroke-miterlimit: 10;
        stroke-width: 1px;
      }
    </style>
  </defs>
  <path class="st0" d="M840.7,749h7.8v-45.3h-10.3v-20.6h10.3v-15.9h10.3v81.6l17-.2v-122h497.6c26.8,0,55.9,33.7,55.9,55.8,0,54.5-28.5,33-28.5,33,0,0-4.2,10.9-20.1,14.5-1.1.3-5.8.6-7.6,0-2.7-.9-3-3.1-4.8-3.2-2.1,0-3.9,2.9-4.6,4.8-.8,2-.2,2.8-.8,4.2-.7,1.5-2.4,3.2-7.3,4.2h151v-151.8s-27,0-27,0v-9h-36v9h-36v-9h-36v9h-36v-9h-36v9h-36v-9h-36v9h-36v-9h-36v9h-36v-9h-36v9h-36v-9h-36v9h-36v-9h-36v9h-36v-9h-36v9h-36v-9h-36v9h-36v-9h-36v9h-36v-9h-35.9v18.4l41.4,5.5c9.1,3,10.8,4.9,10.7,7.1,0,1.8-1.6,4.2-2,7.3-.4,3.1-.9,7.5,1.2,9,1,.7,2.2.8,5.9-.5,4.4-1.5,9.8-4.3,9.8-4.3,7.7-4.1,10.5-4.4,13-4.5,3.3-.2,7.4-1.1,13.5,4.2,27.8,23.8,36.4,47.6,36.4,47.6,3.2,12.3,8.2,33.1-1,51.2-.8,1.5-8.4,16.1-15.9,15.2-3.2-.4-6.1-3.6-7.8-2.3-1.2.8-.4,2.7-1.9,7.1,0,0-.5,1.5-1.1,2.7-2.2,4.5-10.5,5.9-13.6,6.3h100.4ZM848.5,630.7v20.6h-10.3v-20.6h10.3ZM826.5,657.2c-1.1-3.5-2.8-8.4-5.4-14.1-3.9-8.8-9.3-16.5-15.8-23.7-3.6-4-11.4-10.3-22.7-15,13.4,0,29.7-.2,43.1-.3l.8,53.1ZM794.4,719s6.4-12.7,7.6-31.1c.2-2.9,1.7-14.2-8-36.1-14.3-32-41.2-47.8-38.5-48,4-.2,46.4,17.5,59,50,.8,2.2,10.2,26.6,2.8,48.3-3.1,9.3-8.9,16.9-12.4,20.6-.5.6-3.6,3.8-8.5,6.5-2.6,1.5-8.6,2.3-8.6,2.3,0,0,4.2-7.5,6.7-12.4h0ZM809.6,733.7c3-2.4,7.1-6.1,10.5-11.6,4.9-7.9,4.8-15.1,5.7-15l.2,26.7-16.4-.2ZM740.3,776.8c3.1.4,11.3,1.8,13.6,6.3.6,1.2,1.1,2.7,1.1,2.7,1.5,4.4.8,6.3,1.9,7.1,1.7,1.2,4.6-1.9,7.8-2.3,7.6-.9,15.2,13.6,15.9,15.2,9.2,18.1,4.2,38.9,1,51.2,0,0-8.6,23.8-36.4,47.6-6.2,5.3-10.3,4.4-13.5,4.2-2.5-.1-5.3-.5-13-4.5,0,0-5.5-2.8-9.8-4.3-3.7-1.3-5-1.2-5.9-.5-2.2,1.5-1.6,5.8-1.2,9s1.9,5.5,2,7.3c0,2.1-1.7,4-10.7,7.1l-41.5,5.5v18.4h35.9v-8.9h36c0,0,0,8.9,0,8.9h36v-9h36v9h36v-9h36v9h36v-9h36v9h36v-9h36v9h36v-9h36v9h36v-9h36v9h36v-9h36v9h36v-9h36v9h36v-9h36v9h36v-9h36v9h36v-9h27v-151.8h-151c4.9.9,6.6,2.7,7.3,4.2.6,1.4,0,2.2.8,4.2.7,1.9,2.5,4.9,4.6,4.8,1.8,0,2.1-2.2,4.8-3.2,1.8-.6,6.5-.3,7.6,0,15.8,3.6,20.1,14.5,20.1,14.5,0,0,28.5-21.5,28.5,33,0,22.1-29.1,55.8-55.9,55.8h-497.6v-122l-17-.2v81.6h-10.3v-15.9h-10.3v-20.6h10.3v-45.2h-7.8c-33.5,0-67,0-100.4,0h0ZM838.3,895.1v-20.6h10.3v20.6h-10.3ZM825.7,921.6c-13.4,0-29.7-.2-43.1-.3,11.3-4.6,19.2-11,22.7-15,6.5-7.2,11.9-14.9,15.8-23.7,2.5-5.7,4.3-10.6,5.4-14.1l-.8,53.1ZM787.7,794.2s6,.8,8.6,2.3c4.9,2.7,7.9,5.9,8.5,6.5,3.5,3.7,9.3,11.3,12.4,20.6,7.3,21.7-2,46.1-2.8,48.3-12.6,32.5-55,50.2-59,50-2.8-.2,24.2-16,38.5-48,9.8-21.9,8.2-33.2,8-36.1-1.3-18.4-7.6-31.1-7.6-31.1-2.5-5-6.7-12.4-6.7-12.4h0ZM826,791.8l-.2,26.7c-.9.1-.8-7-5.7-15-3.4-5.5-7.4-9.2-10.5-11.6l16.4-.2ZM537.7,607.3c-1.4-2.4-2.8-4.8-4.2-7.3l-5.9-10.3h0c.6-1.8.3-6.5,0-7.6-3.6-15.8-14.5-20-14.5-20,0,0,11.4-40.8-15.7-68.2-17.4-17.6-36.7-29.5-70-16-20.8,8.4-27.9,29.4-27.9,29.4h-4.6c0-.1-8.7-21.6-26.4-28.9-34.2-14-57.2-.8-74.8,17.4-28.3,29.2-19.3,66.3-19.3,66.3,0,0-10.9,4.2-14.5,20-.3,1.1-.6,5.8,0,7.6l-5.9,10.3c-1.4,2.4-2.8,4.8-4.2,7.3,0-70,1.6-76.3,1.6-146.3.4,0-7-5.6-6.6-5.6l14.1-16,7,5.6,22.5-28.1-7-5.6,22.5-28.1,7,5.6,22.5-28.1-7-5.6,22.5-28.1,7,5.6,22.5-28.1-7-5.6,22.5-28.1,22.5,28.1-7,5.6,22.5,28.1,7-5.6,22.5,28.1-7,5.6,22.5,28.1,7-5.6,22.5,28.1-7,5.6,22.5,28.1,7-5.6,12.4,16.8-7.2,5.2,3.2,6.6.6,139.3h0ZM1479.5,558.7h36s11.3-9.1,11.3-9.1l-5.6-7,28.1-22.5,5.6,7,28.1-22.5-5.6-7,28.1-22.5,5.6,7,28.1-22.5-5.6-7,28.1-22.5,5.6,7,28.1-22.5-28.1-22.5-5.6,7-28.1-22.5,5.6-7-28.1-22.5-5.6,7-28.1-22.5,5.6-7-28.1-22.5-5.6,7-28.1-22.5,5.6-7-11.3-9.1h0s-36,0-36,0v9h-36v-9h-36v9h-36v-9h-36v9h-36v-9h-36v9h-36v-9h-36v9h-36v-9h-36v9h-36v-9h-36v9h-36v-9h-36v9h-36v-9h-36v9h-36v-9h-36v9h-36v-9h-36v9h-36v-9h-36v9s-35.9,0-35.9,0v270.2h35.9v8.8h36v-9h36v9h36v-9h36v9h36v-9h36v9h36v-9h36v9h36v-9h36v9h36v-9h36v9h36v-9h36v9h36v-9h36v9h36v-9h36v9h36v-9h36v9h36v-9h36v9M838.6,326.9v-20.6h20.3v20.6h-20.3ZM723.9,346.8v-9h36v9h-36ZM795.9,346.8v-9h36v9h-36ZM838.6,378.3v-20.6h20.3v20.6h-20.3ZM1545.5,414.7c0-5,4-9,9-9s9,4,9,9-4,9-9,9-9-4-9-9ZM838.6,471.2v-20.6h20.3v20.6h-20.3ZM723.9,491.6v-9h36v9h-36ZM795.9,491.6v-9h36v9h-36ZM838.6,523.6v-20.6h20.3v20.6h-20.3ZM753.5,58.5h-10.3v9.3h-40.2c0,0,0-9.4,0-9.4h-10.3v9.5h-43.4s-6.5,0-6.5,0l-.2,8.2h-9v36h9v36h-9v36h9s.4,19,.4,35.6c5.4-13.9,4.7-19.9,12.1-16.4,13.4,6.5,9.9-3.9,7.6-7.8-7.2-12.1-6.2-7.8-6.2-12.1,0-22.6,35.8-53.2,71.5-58.4,22.5-3.2,53.9,13.4,55.3,22.8.5,3.5-4.3,8-1.5,9.9,1.7,1.2,3.7,1,5.9,1,3.4,0,3.7,3.4,8.5,15.7,0-14.6.1-33.9,0-46.4v-60.1h-42.8v-9.3h0ZM657.6,127.2v-43.6l49.7-.5s-16.6,4.7-32.2,18c-10.1,8.6-16.4,19.1-17.5,26.1h0ZM762.2,114.8c-64.6-23.2-104.7,36.9-104.7,36.9,10.3-37.7,52.8-74.2,93.3-58.7,9,3.4,26.2,15,26.2,29.4s-9.2-5.6-14.8-7.6h0ZM780.8,100.1c-3.9-6.4-11.8-13.7-22.3-16.9h22.3v16.9ZM884.1,67.9h-42.8v60.1c-.1,12.5,0,31.7,0,46.4,4.8-12.3,5.1-15.7,8.5-15.7,2.3,0,4.2.2,5.9-1,2.8-1.9-2-6.4-1.5-9.9,1.4-9.4,32.9-26,55.3-22.8,35.7,5.2,71.5,35.8,71.5,58.4s1,0-6.2,12.1c-2.3,3.9-5.8,14.3,7.6,7.8,7.4-3.6,6.7,2.4,12.1,16.4,0-16.7.4-35.6.4-35.6h9v-36h-9v-36h9v-36h-9l-.2-8.2h-49.9s0-9.4,0-9.4h-10.3v9.4h-40.2v-9.3h-10.3v9.3h0ZM962.5,101.2c-15.6-13.3-32.2-18-32.2-18l49.7.5v43.6c-1.1-6.9-7.4-17.4-17.5-26h0ZM860.6,122.4c0-14.4,17.2-25.9,26.2-29.4,40.5-15.5,83,21.1,93.3,58.7,0,0-40.1-60.2-104.7-36.9-5.6,2-14.8,9.6-14.8,7.6h0ZM856.8,83.2h22.3c-10.5,3.2-18.4,10.5-22.3,16.9v-16.9ZM365.6,559.8v10.2h-44.6v25h-10.1v20.7h10.1v31.8h-10.1v20.6h10.1v72.4h-10.1v20.6h10.1v30.8h-10.1v20.3h10.1v25.5h45.6v10.3h20.3v-10.3h31.7v10.3h20.6v-10.3h35.8v-267.5h-35.8v-10.2h-20.6v10.3h-31.7v-10.3h-21.3ZM435.3,770.9v10.3h-10.3v-10.3h10.3ZM375.8,770.8v10.3h-10.3v-10.3h10.3ZM435.3,626.5v10.3h-10.3v-10.3h10.3ZM375.8,626.3v10.3h-10.3v-10.3h10.3ZM43.9,486.5h-9.5s.2-36,.2-36h9.5s.2-36,.2-36h-9.5s.2-36,.2-36h9.5s.2-36,.2-36h-9.5s.2-36,.2-36h8.9s0-35.8,0-35.8h38.8v9h37.2s0-9,0-9h38.7v9.1h37.8s.2,26.8.2,26.8h9.5v36h-9.5v36h9.5v36h-9.5v36h9.5v36h-9.5v23.2s9.5,0,9.5,0v27.3H34.3v-27h9.5s.1-23.6.1-23.6h0ZM197.2,813.7h9.5s0,26.9,0,26.9H34.3s0-27.3,0-27.3h9.5s0-23.2,0-23.2h-9.5v-36h9.5v-36h-9.5v-36h9.5v-36h-9.5v-36h9.5l.2-26.7h37.8v-9.1h38.7v9.1h37.2v-9.1h38.8v35.8c0,0,9,0,9,0l.2,36h-9.5s.2,36,.2,36h9.5s.2,36,.2,36h-9.5s.2,36,.2,36h9.5s.2,36,.2,36h-9.5s.1,23.6.1,23.6h0ZM34.3,197V44h10.3v81.8h10.3V44h25.2v-10.1h20.6v10.1h30.8v-10.1h20.6v10.1h72.4v-10.1h20.6v10.1h31.9v-10.1h20.6v10.1h24.9v81.8h10.3s0-81.8,0-81.8h8.8v154.5c0,4.9-3.9,8.8-8.8,8.8H44.6c-5.7,0-10.3-4.6-10.3-10.3h0Z"/>
</svg>
